REM DIRINDEX 1\2,1\4,1\5,1\6,1\7,1\3\8,1\3\9,1\3\10
REM DIRNAME cjc113,folder01,folder02,folder03,folder04,folder05,folder06,folder07,folder08,folder09
TITLE ""
FILE "DB4500_5th_MK_03.mp3" MP3
  TRACK 01 AUDIO
    TITLE "6:cjc113_6531"
    INDEX 01 00:00:00
  TRACK 02 AUDIO
    TITLE "0:"
    INDEX 01 00:01:13
  TRACK 03 AUDIO
    TITLE "6:cjc113_6532"
    INDEX 01 00:01:15
  TRACK 04 AUDIO
    TITLE "0:"
    INDEX 01 00:02:34
  TRACK 05 AUDIO
    TITLE "6:cjc113_6533"
    INDEX 01 00:03:02
  TRACK 06 AUDIO
    TITLE "0:"
    INDEX 01 00:04:17
  TRACK 07 AUDIO
    TITLE "6:cjc113_6534"
    INDEX 01 00:04:23
  TRACK 08 AUDIO
    TITLE "0:"
    INDEX 01 00:06:45
  TRACK 09 AUDIO
    TITLE "6:cjc113_6535"
    INDEX 01 00:07:11
  TRACK 10 AUDIO
    TITLE "0:"
    INDEX 01 00:08:19
  TRACK 11 AUDIO
    TITLE "6:cjc113_6536"
    INDEX 01 00:08:26
  TRACK 12 AUDIO
    TITLE "0:"
    INDEX 01 00:10:59
  TRACK 13 AUDIO
    TITLE "6:cjc113_6537"
    INDEX 01 00:11:27
  TRACK 14 AUDIO
    TITLE "0:"
    INDEX 01 00:12:36
  TRACK 15 AUDIO
    TITLE "6:cjc113_6538"
    INDEX 01 00:12:46
  TRACK 16 AUDIO
    TITLE "0:"
    INDEX 01 00:13:43
  TRACK 17 AUDIO
    TITLE "6:cjc113_6539"
    INDEX 01 00:14:09
  TRACK 18 AUDIO
    TITLE "0:"
    INDEX 01 00:15:19
  TRACK 19 AUDIO
    TITLE "6:cjc113_6540"
    INDEX 01 00:15:30
  TRACK 20 AUDIO
    TITLE "0:"
    INDEX 01 00:16:40
  TRACK 21 AUDIO
    TITLE "6:cjc113_6541"
    INDEX 01 00:17:06
  TRACK 22 AUDIO
    TITLE "0:"
    INDEX 01 00:18:44
  TRACK 23 AUDIO
    TITLE "6:cjc113_6542"
    INDEX 01 00:18:48
  TRACK 24 AUDIO
    TITLE "0:"
    INDEX 01 00:20:08
  TRACK 25 AUDIO
    TITLE "6:cjc113_6543"
    INDEX 01 00:20:47
  TRACK 26 AUDIO
    TITLE "0:"
    INDEX 01 00:22:17
  TRACK 27 AUDIO
    TITLE "6:cjc113_6544"
    INDEX 01 00:22:25
  TRACK 28 AUDIO
    TITLE "0:"
    INDEX 01 00:23:57
  TRACK 29 AUDIO
    TITLE "6:cjc113_6545"
    INDEX 01 00:24:24
  TRACK 30 AUDIO
    TITLE "0:"
    INDEX 01 00:25:46
  TRACK 31 AUDIO
    TITLE "6:cjc113_6546"
    INDEX 01 00:25:54
  TRACK 32 AUDIO
    TITLE "0:"
    INDEX 01 00:27:04
  TRACK 33 AUDIO
    TITLE "6:cjc113_6547"
    INDEX 01 00:27:47
  TRACK 34 AUDIO
    TITLE "0:"
    INDEX 01 00:28:53
  TRACK 35 AUDIO
    TITLE "6:cjc113_6548"
    INDEX 01 00:28:62
  TRACK 36 AUDIO
    TITLE "0:"
    INDEX 01 00:30:03
  TRACK 37 AUDIO
    TITLE "6:cjc113_6549"
    INDEX 01 00:30:46
  TRACK 38 AUDIO
    TITLE "0:"
    INDEX 01 00:31:53
  TRACK 39 AUDIO
    TITLE "6:cjc113_6550"
    INDEX 01 00:31:59
  TRACK 40 AUDIO
    TITLE "0:"
    INDEX 01 00:33:11
  TRACK 41 AUDIO
    TITLE "6:cjc113_6551"
    INDEX 01 00:33:50
  TRACK 42 AUDIO
    TITLE "0:"
    INDEX 01 00:35:17
  TRACK 43 AUDIO
    TITLE "6:cjc113_6552"
    INDEX 01 00:35:27
  TRACK 44 AUDIO
    TITLE "0:"
    INDEX 01 00:37:30
  TRACK 45 AUDIO
    TITLE "6:cjc113_6553"
    INDEX 01 00:37:63
  TRACK 46 AUDIO
    TITLE "0:"
    INDEX 01 00:39:25
  TRACK 47 AUDIO
    TITLE "6:cjc113_6554"
    INDEX 01 00:39:29
  TRACK 48 AUDIO
    TITLE "0:"
    INDEX 01 00:40:64
  TRACK 49 AUDIO
    TITLE "6:cjc113_6555"
    INDEX 01 00:41:32
  TRACK 50 AUDIO
    TITLE "0:"
    INDEX 01 00:42:49
  TRACK 51 AUDIO
    TITLE "6:cjc113_6556"
    INDEX 01 00:42:57
  TRACK 52 AUDIO
    TITLE "0:"
    INDEX 01 00:44:28
  TRACK 53 AUDIO
    TITLE "6:cjc113_6557"
    INDEX 01 00:44:69
  TRACK 54 AUDIO
    TITLE "0:"
    INDEX 01 00:46:09
  TRACK 55 AUDIO
    TITLE "6:cjc113_6558"
    INDEX 01 00:46:17
  TRACK 56 AUDIO
    TITLE "0:"
    INDEX 01 00:47:66
  TRACK 57 AUDIO
    TITLE "6:cjc113_6559"
    INDEX 01 00:48:32
  TRACK 58 AUDIO
    TITLE "0:"
    INDEX 01 00:49:61
  TRACK 59 AUDIO
    TITLE "6:cjc113_6560"
    INDEX 01 00:49:69
  TRACK 60 AUDIO
    TITLE "0:"
    INDEX 01 00:51:26
  TRACK 61 AUDIO
    TITLE "6:cjc113_6561"
    INDEX 01 00:51:67
  TRACK 62 AUDIO
    TITLE "0:"
    INDEX 01 00:53:13
  TRACK 63 AUDIO
    TITLE "6:cjc113_6562"
    INDEX 01 00:53:23
  TRACK 64 AUDIO
    TITLE "0:"
    INDEX 01 00:54:54
  TRACK 65 AUDIO
    TITLE "6:cjc113_6563"
    INDEX 01 00:55:20
  TRACK 66 AUDIO
    TITLE "0:"
    INDEX 01 00:56:45
  TRACK 67 AUDIO
    TITLE "6:cjc113_6564"
    INDEX 01 00:56:53
  TRACK 68 AUDIO
    TITLE "0:"
    INDEX 01 00:59:04
  TRACK 69 AUDIO
    TITLE "6:cjc113_6565"
    INDEX 01 00:59:45
  TRACK 70 AUDIO
    TITLE "0:"
    INDEX 01 01:00:70
  TRACK 71 AUDIO
    TITLE "6:cjc113_6566"
    INDEX 01 01:01:01
  TRACK 72 AUDIO
    TITLE "0:"
    INDEX 01 01:02:73
  TRACK 73 AUDIO
    TITLE "6:cjc113_6567"
    INDEX 01 01:03:37
  TRACK 74 AUDIO
    TITLE "0:"
    INDEX 01 01:04:64
  TRACK 75 AUDIO
    TITLE "6:cjc113_6568"
    INDEX 01 01:04:70
  TRACK 76 AUDIO
    TITLE "0:"
    INDEX 01 01:06:30
  TRACK 77 AUDIO
    TITLE "6:cjc113_6569"
    INDEX 01 01:06:69
  TRACK 78 AUDIO
    TITLE "0:"
    INDEX 01 01:08:01
  TRACK 79 AUDIO
    TITLE "6:cjc113_6570"
    INDEX 01 01:08:09
  TRACK 80 AUDIO
    TITLE "0:"
    INDEX 01 01:09:24
  TRACK 81 AUDIO
    TITLE "6:cjc113_6571"
    INDEX 01 01:09:65
  TRACK 82 AUDIO
    TITLE "0:"
    INDEX 01 01:10:73
  TRACK 83 AUDIO
    TITLE "6:cjc113_6572"
    INDEX 01 01:11:07
  TRACK 84 AUDIO
    TITLE "0:"
    INDEX 01 01:12:56
  TRACK 85 AUDIO
    TITLE "6:cjc113_6573"
    INDEX 01 01:13:22
  TRACK 86 AUDIO
    TITLE "0:"
    INDEX 01 01:14:27
  TRACK 87 AUDIO
    TITLE "6:cjc113_6574"
    INDEX 01 01:14:35
  TRACK 88 AUDIO
    TITLE "0:"
    INDEX 01 01:15:39
  TRACK 89 AUDIO
    TITLE "6:cjc113_6575"
    INDEX 01 01:16:05
  TRACK 90 AUDIO
    TITLE "0:"
    INDEX 01 01:17:35
  TRACK 91 AUDIO
    TITLE "6:cjc113_6576"
    INDEX 01 01:17:47
  TRACK 92 AUDIO
    TITLE "0:"
    INDEX 01 01:18:72
  TRACK 93 AUDIO
    TITLE "6:cjc113_6577"
    INDEX 01 01:19:36
  TRACK 94 AUDIO
    TITLE "0:"
    INDEX 01 01:20:69
  TRACK 95 AUDIO
    TITLE "6:cjc113_6578"
    INDEX 01 01:21:00
  TRACK 96 AUDIO
    TITLE "0:"
    INDEX 01 01:22:35
  TRACK 97 AUDIO
    TITLE "6:cjc113_6579"
    INDEX 01 01:23:01
  TRACK 98 AUDIO
    TITLE "0:"
    INDEX 01 01:24:18
  TRACK 99 AUDIO
    TITLE "6:cjc113_6580"
    INDEX 01 01:24:24
  TRACK 100 AUDIO
    TITLE "0:"
    INDEX 01 01:25:37
  TRACK 101 AUDIO
    TITLE "6:cjc113_6581"
    INDEX 01 01:26:01
  TRACK 102 AUDIO
    TITLE "0:"
    INDEX 01 01:27:18
  TRACK 103 AUDIO
    TITLE "6:cjc113_6582"
    INDEX 01 01:27:28
  TRACK 104 AUDIO
    TITLE "0:"
    INDEX 01 01:28:43
  TRACK 105 AUDIO
    TITLE "6:cjc113_6583"
    INDEX 01 01:29:09
  TRACK 106 AUDIO
    TITLE "0:"
    INDEX 01 01:30:50
  TRACK 107 AUDIO
    TITLE "6:cjc113_6584"
    INDEX 01 01:30:58
  TRACK 108 AUDIO
    TITLE "0:"
    INDEX 01 01:32:06
  TRACK 109 AUDIO
    TITLE "6:cjc113_6585"
    INDEX 01 01:32:47
  TRACK 110 AUDIO
    TITLE "0:"
    INDEX 01 01:33:74
  TRACK 111 AUDIO
    TITLE "6:cjc113_6586"
    INDEX 01 01:34:06
  TRACK 112 AUDIO
    TITLE "0:"
    INDEX 01 01:35:65
  TRACK 113 AUDIO
    TITLE "6:cjc113_6587"
    INDEX 01 01:36:29
  TRACK 114 AUDIO
    TITLE "0:"
    INDEX 01 01:37:54
  TRACK 115 AUDIO
    TITLE "6:cjc113_6588"
    INDEX 01 01:37:60
  TRACK 116 AUDIO
    TITLE "0:"
    INDEX 01 01:39:31
  TRACK 117 AUDIO
    TITLE "6:cjc113_6589"
    INDEX 01 01:39:74
  TRACK 118 AUDIO
    TITLE "0:"
    INDEX 01 01:41:34
  TRACK 119 AUDIO
    TITLE "6:cjc113_6590"
    INDEX 01 01:41:42
  TRACK 120 AUDIO
    TITLE "0:"
    INDEX 01 01:43:13
  TRACK 121 AUDIO
    TITLE "6:cjc113_6591"
    INDEX 01 01:43:54
  TRACK 122 AUDIO
    TITLE "0:"
    INDEX 01 01:44:62
  TRACK 123 AUDIO
    TITLE "6:cjc113_6592"
    INDEX 01 01:44:72
  TRACK 124 AUDIO
    TITLE "0:"
    INDEX 01 01:45:73
  TRACK 125 AUDIO
    TITLE "6:cjc113_6593"
    INDEX 01 01:46:39
  TRACK 126 AUDIO
    TITLE "0:"
    INDEX 01 01:47:66
  TRACK 127 AUDIO
    TITLE "6:cjc113_6594"
    INDEX 01 01:47:74
  TRACK 128 AUDIO
    TITLE "0:"
    INDEX 01 01:49:02
  TRACK 129 AUDIO
    TITLE "6:cjc113_6595"
    INDEX 01 01:49:39
  TRACK 130 AUDIO
    TITLE "0:"
    INDEX 01 01:50:58
  TRACK 131 AUDIO
    TITLE "6:cjc113_6596"
    INDEX 01 01:50:66
  TRACK 132 AUDIO
    TITLE "0:"
    INDEX 01 01:52:18
  TRACK 133 AUDIO
    TITLE "6:cjc113_6597"
    INDEX 01 01:52:59
  TRACK 134 AUDIO
    TITLE "0:"
    INDEX 01 01:54:31
  TRACK 135 AUDIO
    TITLE "6:cjc113_6598"
    INDEX 01 01:54:37
  TRACK 136 AUDIO
    TITLE "0:"
    INDEX 01 01:55:60
  TRACK 137 AUDIO
    TITLE "6:cjc113_6599"
    INDEX 01 01:56:28
  TRACK 138 AUDIO
    TITLE "0:"
    INDEX 01 01:58:58
  TRACK 139 AUDIO
    TITLE "6:cjc113_6600"
    INDEX 01 01:58:62
  TRACK 140 AUDIO
    TITLE "0:"
    INDEX 01 02:01:05
  TRACK 141 AUDIO
    TITLE "6:cjc113_6601"
    INDEX 01 02:01:45
  TRACK 142 AUDIO
    TITLE "0:"
    INDEX 01 02:03:18
  TRACK 143 AUDIO
    TITLE "6:cjc113_6602"
    INDEX 01 02:03:24
  TRACK 144 AUDIO
    TITLE "0:"
    INDEX 01 02:05:11
  TRACK 145 AUDIO
    TITLE "6:cjc113_6603"
    INDEX 01 02:05:52
  TRACK 146 AUDIO
    TITLE "0:"
    INDEX 01 02:07:24
  TRACK 147 AUDIO
    TITLE "6:cjc113_6604"
    INDEX 01 02:07:35
  TRACK 148 AUDIO
    TITLE "0:"
    INDEX 01 02:09:62
  TRACK 149 AUDIO
    TITLE "6:cjc113_6605"
    INDEX 01 02:10:28
  TRACK 150 AUDIO
    TITLE "0:"
    INDEX 01 02:12:05
  TRACK 151 AUDIO
    TITLE "6:cjc113_6606"
    INDEX 01 02:12:11
  TRACK 152 AUDIO
    TITLE "0:"
    INDEX 01 02:13:34
  TRACK 153 AUDIO
    TITLE "6:cjc113_6607"
    INDEX 01 02:13:71
  TRACK 154 AUDIO
    TITLE "0:"
    INDEX 01 02:15:33
  TRACK 155 AUDIO
    TITLE "6:cjc113_6608"
    INDEX 01 02:15:39
  TRACK 156 AUDIO
    TITLE "0:"
    INDEX 01 02:17:69
  TRACK 157 AUDIO
    TITLE "6:cjc113_6609"
    INDEX 01 02:18:35
  TRACK 158 AUDIO
    TITLE "0:"
    INDEX 01 02:20:48
  TRACK 159 AUDIO
    TITLE "6:cjc113_6610"
    INDEX 01 02:20:56
  TRACK 160 AUDIO
    TITLE "0:"
    INDEX 01 02:22:23
  TRACK 161 AUDIO
    TITLE "6:cjc113_6611"
    INDEX 01 02:22:66
  TRACK 162 AUDIO
    TITLE "0:"
    INDEX 01 02:24:57
  TRACK 163 AUDIO
    TITLE "6:cjc113_6612"
    INDEX 01 02:24:61
  TRACK 164 AUDIO
    TITLE "0:"
    INDEX 01 02:27:18
  TRACK 165 AUDIO
    TITLE "6:cjc113_6613"
    INDEX 01 02:27:60
  TRACK 166 AUDIO
    TITLE "0:"
    INDEX 01 02:29:13
  TRACK 167 AUDIO
    TITLE "6:cjc113_6614"
    INDEX 01 02:29:21
  TRACK 168 AUDIO
    TITLE "0:"
    INDEX 01 02:31:55
  TRACK 169 AUDIO
    TITLE "6:cjc113_6615"
    INDEX 01 02:32:24
  TRACK 170 AUDIO
    TITLE "0:"
    INDEX 01 02:34:20
  TRACK 171 AUDIO
    TITLE "6:cjc113_6616"
    INDEX 01 02:34:28
  TRACK 172 AUDIO
    TITLE "0:"
    INDEX 01 02:35:63
  TRACK 173 AUDIO
    TITLE "6:cjc113_6617"
    INDEX 01 02:36:29
  TRACK 174 AUDIO
    TITLE "0:"
    INDEX 01 02:37:50
  TRACK 175 AUDIO
    TITLE "6:cjc113_6618"
    INDEX 01 02:37:58
  TRACK 176 AUDIO
    TITLE "0:"
    INDEX 01 02:39:26
  TRACK 177 AUDIO
    TITLE "6:cjc113_6619"
    INDEX 01 02:39:67
  TRACK 178 AUDIO
    TITLE "0:"
    INDEX 01 02:41:73
  TRACK 179 AUDIO
    TITLE "6:cjc113_6620"
    INDEX 01 02:42:02
  TRACK 180 AUDIO
    TITLE "0:"
    INDEX 01 02:43:23
  TRACK 181 AUDIO
    TITLE "6:cjc113_6621"
    INDEX 01 02:43:64
  TRACK 182 AUDIO
    TITLE "0:"
    INDEX 01 02:45:28
  TRACK 183 AUDIO
    TITLE "6:cjc113_6622"
    INDEX 01 02:45:34
  TRACK 184 AUDIO
    TITLE "0:"
    INDEX 01 02:47:11
  TRACK 185 AUDIO
    TITLE "6:cjc113_6623"
    INDEX 01 02:47:52
  TRACK 186 AUDIO
    TITLE "0:"
    INDEX 01 02:49:20
  TRACK 187 AUDIO
    TITLE "6:cjc113_6624"
    INDEX 01 02:49:28
  TRACK 188 AUDIO
    TITLE "0:"
    INDEX 01 02:50:53
  TRACK 189 AUDIO
    TITLE "6:cjc113_6625"
    INDEX 01 02:51:17
  TRACK 190 AUDIO
    TITLE "0:"
    INDEX 01 02:53:02
  TRACK 191 AUDIO
    TITLE "6:cjc113_6626"
    INDEX 01 02:53:10
  TRACK 192 AUDIO
    TITLE "0:"
    INDEX 01 02:54:43
  TRACK 193 AUDIO
    TITLE "6:cjc113_6627"
    INDEX 01 02:55:09
  TRACK 194 AUDIO
    TITLE "0:"
    INDEX 01 02:56:63
  TRACK 195 AUDIO
    TITLE "6:cjc113_6628"
    INDEX 01 02:56:69
  TRACK 196 AUDIO
    TITLE "0:"
    INDEX 01 02:58:64
  TRACK 197 AUDIO
    TITLE "6:cjc113_6629"
    INDEX 01 02:59:32
  TRACK 198 AUDIO
    TITLE "0:"
    INDEX 01 03:00:73
  TRACK 199 AUDIO
    TITLE "6:cjc113_6630"
    INDEX 01 03:01:06
  TRACK 200 AUDIO
    TITLE "0:"
    INDEX 01 03:03:24
  TRACK 201 AUDIO
    TITLE "6:cjc113_6631"
    INDEX 01 03:03:67
  TRACK 202 AUDIO
    TITLE "0:"
    INDEX 01 03:05:17
  TRACK 203 AUDIO
    TITLE "6:cjc113_6632"
    INDEX 01 03:05:25
  TRACK 204 AUDIO
    TITLE "0:"
    INDEX 01 03:07:47
  TRACK 205 AUDIO
    TITLE "6:cjc113_6633"
    INDEX 01 03:08:12
  TRACK 206 AUDIO
    TITLE "0:"
    INDEX 01 03:10:48
  TRACK 207 AUDIO
    TITLE "6:cjc113_6634"
    INDEX 01 03:10:55
  TRACK 208 AUDIO
    TITLE "0:"
    INDEX 01 03:13:11
  TRACK 209 AUDIO
    TITLE "6:cjc113_6635"
    INDEX 01 03:13:54
  TRACK 210 AUDIO
    TITLE "0:"
    INDEX 01 03:15:59
  TRACK 211 AUDIO
    TITLE "6:cjc113_6636"
    INDEX 01 03:15:70
  TRACK 212 AUDIO
    TITLE "0:"
    INDEX 01 03:18:26
  TRACK 213 AUDIO
    TITLE "6:cjc113_6637"
    INDEX 01 03:18:67
  TRACK 214 AUDIO
    TITLE "0:"
    INDEX 01 03:20:26
  TRACK 215 AUDIO
    TITLE "6:cjc113_6638"
    INDEX 01 03:20:36
  TRACK 216 AUDIO
    TITLE "0:"
    INDEX 01 03:22:59
  TRACK 217 AUDIO
    TITLE "6:cjc113_6639"
    INDEX 01 03:23:27
  TRACK 218 AUDIO
    TITLE "0:"
    INDEX 01 03:25:18
  TRACK 219 AUDIO
    TITLE "6:cjc113_6640"
    INDEX 01 03:25:28
  TRACK 220 AUDIO
    TITLE "0:"
    INDEX 01 03:27:03
  TRACK 221 AUDIO
    TITLE "6:cjc113_6641"
    INDEX 01 03:27:42
  TRACK 222 AUDIO
    TITLE "0:"
    INDEX 01 03:29:59
  TRACK 223 AUDIO
    TITLE "6:cjc113_6642"
    INDEX 01 03:29:69
  TRACK 224 AUDIO
    TITLE "0:"
    INDEX 01 03:31:48
  TRACK 225 AUDIO
    TITLE "6:cjc113_6643"
    INDEX 01 03:32:12
  TRACK 226 AUDIO
    TITLE "0:"
    INDEX 01 03:35:18
  TRACK 227 AUDIO
    TITLE "6:cjc113_6644"
    INDEX 01 03:35:28
  TRACK 228 AUDIO
    TITLE "0:"
    INDEX 01 03:38:15
  TRACK 229 AUDIO
    TITLE "6:cjc113_6645"
    INDEX 01 03:38:58
  TRACK 230 AUDIO
    TITLE "0:"
    INDEX 01 03:40:66
  TRACK 231 AUDIO
    TITLE "6:cjc113_6646"
    INDEX 01 03:40:72
  TRACK 232 AUDIO
    TITLE "0:"
    INDEX 01 03:43:18
  TRACK 233 AUDIO
    TITLE "6:cjc113_6647"
    INDEX 01 03:43:57
  TRACK 234 AUDIO
    TITLE "0:"
    INDEX 01 03:46:34
  TRACK 235 AUDIO
    TITLE "6:cjc113_6648"
    INDEX 01 03:46:42
  TRACK 236 AUDIO
    TITLE "0:"
    INDEX 01 03:49:18
  TRACK 237 AUDIO
    TITLE "6:cjc113_6649"
    INDEX 01 03:49:59
  TRACK 238 AUDIO
    TITLE "0:"
    INDEX 01 03:51:11
  TRACK 239 AUDIO
    TITLE "6:cjc113_6650"
    INDEX 01 03:51:17
  TRACK 240 AUDIO
    TITLE "0:"
    INDEX 01 03:53:18
  TRACK 241 AUDIO
    TITLE "6:cjc113_6651"
    INDEX 01 03:53:59
  TRACK 242 AUDIO
    TITLE "0:"
    INDEX 01 03:55:29
  TRACK 243 AUDIO
    TITLE "6:cjc113_6652"
    INDEX 01 03:55:39
  TRACK 244 AUDIO
    TITLE "0:"
    INDEX 01 03:57:39
  TRACK 245 AUDIO
    TITLE "6:cjc113_6653"
    INDEX 01 03:58:06
  TRACK 246 AUDIO
    TITLE "0:"
    INDEX 01 03:59:56
  TRACK 247 AUDIO
    TITLE "6:cjc113_6654"
    INDEX 01 03:59:62
  TRACK 248 AUDIO
    TITLE "0:"
    INDEX 01 04:02:01
  TRACK 249 AUDIO
    TITLE "6:cjc113_6655"
    INDEX 01 04:02:42
  TRACK 250 AUDIO
    TITLE "0:"
    INDEX 01 04:03:62
  TRACK 251 AUDIO
    TITLE "6:cjc113_6656"
    INDEX 01 04:03:71
  TRACK 252 AUDIO
    TITLE "0:"
    INDEX 01 04:06:38
  TRACK 253 AUDIO
    TITLE "6:cjc113_6657"
    INDEX 01 04:07:04
  TRACK 254 AUDIO
    TITLE "0:"
    INDEX 01 04:08:69
  TRACK 255 AUDIO
    TITLE "6:cjc113_6658"
    INDEX 01 04:09:05
  TRACK 256 AUDIO
    TITLE "0:"
    INDEX 01 04:11:47
  TRACK 257 AUDIO
    TITLE "6:cjc113_6659"
    INDEX 01 04:12:08
  TRACK 258 AUDIO
    TITLE "0:"
    INDEX 01 04:13:62
  TRACK 259 AUDIO
    TITLE "6:cjc113_6660"
    INDEX 01 04:13:64
  TRACK 260 AUDIO
    TITLE "0:"
    INDEX 01 04:15:04
  TRACK 261 AUDIO
    TITLE "6:cjc113_6661"
    INDEX 01 04:15:39
  TRACK 262 AUDIO
    TITLE "0:"
    INDEX 01 04:17:26
  TRACK 263 AUDIO
    TITLE "6:cjc113_6662"
    INDEX 01 04:17:30
  TRACK 264 AUDIO
    TITLE "0:"
    INDEX 01 04:19:19
  TRACK 265 AUDIO
    TITLE "6:cjc113_6663"
    INDEX 01 04:19:55
  TRACK 266 AUDIO
    TITLE "0:"
    INDEX 01 04:21:61
  TRACK 267 AUDIO
    TITLE "6:cjc113_6664"
    INDEX 01 04:21:69
  TRACK 268 AUDIO
    TITLE "0:"
    INDEX 01 04:24:21
  TRACK 269 AUDIO
    TITLE "6:cjc113_6665"
    INDEX 01 04:24:60
  TRACK 270 AUDIO
    TITLE "0:"
    INDEX 01 04:26:49
  TRACK 271 AUDIO
    TITLE "6:cjc113_6666"
    INDEX 01 04:26:57
  TRACK 272 AUDIO
    TITLE "0:"
    INDEX 01 04:29:22
  TRACK 273 AUDIO
    TITLE "6:cjc113_6667"
    INDEX 01 04:29:61
  TRACK 274 AUDIO
    TITLE "0:"
    INDEX 01 04:32:71
  TRACK 275 AUDIO
    TITLE "6:cjc113_6668"
    INDEX 01 04:33:02
  TRACK 276 AUDIO
    TITLE "0:"
    INDEX 01 04:36:14
  TRACK 277 AUDIO
    TITLE "6:cjc113_6669"
    INDEX 01 04:36:55
  TRACK 278 AUDIO
    TITLE "0:"
    INDEX 01 04:38:27
  TRACK 279 AUDIO
    TITLE "6:cjc113_6670"
    INDEX 01 04:38:36
  TRACK 280 AUDIO
    TITLE "0:"
    INDEX 01 04:41:62
  TRACK 281 AUDIO
    TITLE "6:cjc113_6671"
    INDEX 01 04:42:26
  TRACK 282 AUDIO
    TITLE "0:"
    INDEX 01 04:44:72
  TRACK 283 AUDIO
    TITLE "6:cjc113_6672"
    INDEX 01 04:45:01
  TRACK 284 AUDIO
    TITLE "0:"
    INDEX 01 04:47:67
  TRACK 285 AUDIO
    TITLE "6:cjc113_6673"
    INDEX 01 04:48:33
  TRACK 286 AUDIO
    TITLE "0:"
    INDEX 01 04:50:14
  TRACK 287 AUDIO
    TITLE "6:cjc113_6674"
    INDEX 01 04:50:18
  TRACK 288 AUDIO
    TITLE "0:"
    INDEX 01 04:52:17
  TRACK 289 AUDIO
    TITLE "6:cjc113_6675"
    INDEX 01 04:52:62
  TRACK 290 AUDIO
    TITLE "0:"
    INDEX 01 04:54:57
  TRACK 291 AUDIO
    TITLE "6:cjc113_6676"
    INDEX 01 04:54:61
  TRACK 292 AUDIO
    TITLE "0:"
    INDEX 01 04:57:00
  TRACK 293 AUDIO
    TITLE "6:cjc113_6677"
    INDEX 01 04:57:42
  TRACK 294 AUDIO
    TITLE "0:"
    INDEX 01 04:59:19
  TRACK 295 AUDIO
    TITLE "6:cjc113_6678"
    INDEX 01 04:59:27
  TRACK 296 AUDIO
    TITLE "0:"
    INDEX 01 05:01:26
  TRACK 297 AUDIO
    TITLE "6:cjc113_6679"
    INDEX 01 05:01:69
  TRACK 298 AUDIO
    TITLE "0:"
    INDEX 01 05:03:66
  TRACK 299 AUDIO
    TITLE "6:cjc113_6680"
    INDEX 01 05:03:74
  TRACK 300 AUDIO
    TITLE "0:"
    INDEX 01 05:06:09
  TRACK 301 AUDIO
    TITLE "6:cjc113_6681"
    INDEX 01 05:06:50
  TRACK 302 AUDIO
    TITLE "0:"
    INDEX 01 05:08:20
  TRACK 303 AUDIO
    TITLE "6:cjc113_6682"
    INDEX 01 05:08:28
  TRACK 304 AUDIO
    TITLE "0:"
    INDEX 01 05:11:03
  TRACK 305 AUDIO
    TITLE "6:cjc113_6683"
    INDEX 01 05:11:42
  TRACK 306 AUDIO
    TITLE "0:"
    INDEX 01 05:13:27
  TRACK 307 AUDIO
    TITLE "6:cjc113_6684"
    INDEX 01 05:13:33
  TRACK 308 AUDIO
    TITLE "0:"
    INDEX 01 05:15:30
  TRACK 309 AUDIO
    TITLE "6:cjc113_6685"
    INDEX 01 05:15:71
  TRACK 310 AUDIO
    TITLE "0:"
    INDEX 01 05:17:36
  TRACK 311 AUDIO
    TITLE "6:cjc113_6686"
    INDEX 01 05:17:44
  TRACK 312 AUDIO
    TITLE "0:"
    INDEX 01 05:19:35
  TRACK 313 AUDIO
    TITLE "6:cjc113_6687"
    INDEX 01 05:20:00
  TRACK 314 AUDIO
    TITLE "0:"
    INDEX 01 05:21:46
  TRACK 315 AUDIO
    TITLE "6:cjc113_6688"
    INDEX 01 05:21:54
  TRACK 316 AUDIO
    TITLE "0:"
    INDEX 01 05:24:23
  TRACK 317 AUDIO
    TITLE "6:cjc113_6689"
    INDEX 01 05:24:64
  TRACK 318 AUDIO
    TITLE "0:"
    INDEX 01 05:26:35
  TRACK 319 AUDIO
    TITLE "6:cjc113_6690"
    INDEX 01 05:26:39
  TRACK 320 AUDIO
    TITLE "0:"
    INDEX 01 05:28:66
  TRACK 321 AUDIO
    TITLE "6:cjc113_6691"
    INDEX 01 05:29:36
  TRACK 322 AUDIO
    TITLE "0:"
    INDEX 01 05:31:13
  TRACK 323 AUDIO
    TITLE "6:cjc113_6692"
    INDEX 01 05:31:23
  TRACK 324 AUDIO
    TITLE "0:"
    INDEX 01 05:33:12
  TRACK 325 AUDIO
    TITLE "6:cjc113_6693"
    INDEX 01 05:33:53
  TRACK 326 AUDIO
    TITLE "0:"
    INDEX 01 05:35:70
  TRACK 327 AUDIO
    TITLE "6:cjc113_6694"
    INDEX 01 05:36:00
  TRACK 328 AUDIO
    TITLE "0:"
    INDEX 01 05:37:49
